HIERARCHY
ROOT Hips
{
	OFFSET 0.000000 89.005402 0.000000
	CHANNELS 6 Xposition Yposition Zposition Xrotation Yrotation Zrotation
	JOINT Spine
	{
		OFFSET 0.116900 10.681000 0.373400
		CHANNELS 3 Xrotation Yrotation Zrotation
		JOINT Spine1
		{
			OFFSET 0.000000 13.840401 0.053500
			CHANNELS 3 Xrotation Yrotation Zrotation
			JOINT Spine2
			{
				OFFSET 0.000000 14.712700 -0.366200
				CHANNELS 3 Xrotation Yrotation Zrotation
				JOINT Neck
				{
					OFFSET 0.000000 35.415497 -3.314200
					CHANNELS 3 Xrotation Yrotation Zrotation
					JOINT Head
					{
						OFFSET 0.000000 16.899200 1.218300
						CHANNELS 3 Xrotation Yrotation Zrotation
						JOINT HeadTop_End
						{
							OFFSET 0.000000 22.206207 2.192500
							CHANNELS 3 Xrotation Yrotation Zrotation
							End Site
							{
								OFFSET 0.000000 22.314178 0.000000
							}
						}
					}
				}
				JOINT LeftShoulder
				{
					OFFSET 12.896400 26.716293 -4.548400
					CHANNELS 3 Xrotation Yrotation Zrotation
					JOINT LeftArm
					{
						OFFSET 19.027000 -4.857010 -1.718400
						CHANNELS 3 Xrotation Yrotation Zrotation
						JOINT LeftForeArm
						{
							OFFSET 24.179897 0.000000 0.000000
							CHANNELS 3 Xrotation Yrotation Zrotation
							JOINT LeftHand
							{
								OFFSET 27.156403 0.000000 0.000000
								CHANNELS 3 Xrotation Yrotation Zrotation
								JOINT LeftHandIndex1
								{
									OFFSET 16.441200 0.000000 0.000000
									CHANNELS 3 Xrotation Yrotation Zrotation
									JOINT LeftHandIndex2
									{
										OFFSET 4.821899 0.000000 0.000000
										CHANNELS 3 Xrotation Yrotation Zrotation
										JOINT LeftHandIndex3
										{
											OFFSET 6.386497 0.000000 0.000000
											CHANNELS 3 Xrotation Yrotation Zrotation
											JOINT LeftHandIndex4
											{
												OFFSET 5.188988 0.000000 0.000000
												CHANNELS 3 Xrotation Yrotation Zrotation
												End Site
												{
													OFFSET -0.178703 5.185913 0.000177
												}
											}
										}
									}
								}
								JOINT LeftHandThumb1
								{
									OFFSET 6.534897 -5.032593 5.900300
									CHANNELS 3 Xrotation Yrotation Zrotation
									JOINT LeftHandThumb2
									{
										OFFSET 3.818176 -2.204422 2.204423
										CHANNELS 3 Xrotation Yrotation Zrotation
										JOINT LeftHandThumb3
										{
											OFFSET 3.252098 -1.877594 1.877601
											CHANNELS 3 Xrotation Yrotation Zrotation
											JOINT LeftHandThumb4
											{
												OFFSET 5.251778 -3.032120 3.032117
												CHANNELS 3 Xrotation Yrotation Zrotation
												End Site
												{
													OFFSET 0.000023 6.780014 0.000000
												}
											}
										}
									}
								}
							}
						}
					}
				}
				JOINT RightShoulder
				{
					OFFSET -12.896300 26.716293 -4.548400
					CHANNELS 3 Xrotation Yrotation Zrotation
					JOINT RightArm
					{
						OFFSET -19.027000 -4.857010 -1.718400
						CHANNELS 3 Xrotation Yrotation Zrotation
						JOINT RightForeArm
						{
							OFFSET -24.179897 0.000000 0.000000
							CHANNELS 3 Xrotation Yrotation Zrotation
							JOINT RightHand
							{
								OFFSET -27.156403 0.000000 0.000000
								CHANNELS 3 Xrotation Yrotation Zrotation
								JOINT RightHandThumb1
								{
									OFFSET -6.591202 -4.852203 5.988100
									CHANNELS 3 Xrotation Yrotation Zrotation
									JOINT RightHandThumb2
									{
										OFFSET -3.818176 -2.204422 2.204423
										CHANNELS 3 Xrotation Yrotation Zrotation
										JOINT RightHandThumb3
										{
											OFFSET -3.252098 -1.877594 1.877601
											CHANNELS 3 Xrotation Yrotation Zrotation
											JOINT RightHandThumb4
											{
												OFFSET -5.251778 -3.032120 3.032117
												CHANNELS 3 Xrotation Yrotation Zrotation
												End Site
												{
													OFFSET -0.000023 6.780014 0.000000
												}
											}
										}
									}
								}
								JOINT RightHandIndex1
								{
									OFFSET -16.029404 0.000000 0.000000
									CHANNELS 3 Xrotation Yrotation Zrotation
									JOINT RightHandIndex2
									{
										OFFSET -5.213303 0.000000 0.000000
										CHANNELS 3 Xrotation Yrotation Zrotation
										JOINT RightHandIndex3
										{
											OFFSET -6.386528 0.000000 0.000000
											CHANNELS 3 Xrotation Yrotation Zrotation
											JOINT RightHandIndex4
											{
												OFFSET -5.189026 0.000000 0.000000
												CHANNELS 3 Xrotation Yrotation Zrotation
												End Site
												{
													OFFSET 0.236702 5.183624 0.001972
												}
											}
										}
									}
								}
							}
						}
					}
				}
			}
		}
	}
	JOINT LeftUpLeg
	{
		OFFSET 14.073000 -7.904099 -1.463000
		CHANNELS 3 Xrotation Yrotation Zrotation
		JOINT LeftLeg
		{
			OFFSET -0.109806 -34.073280 4.093200
			CHANNELS 3 Xrotation Yrotation Zrotation
			JOINT LeftFoot
			{
				OFFSET 0.109806 -29.899420 -6.319000
				CHANNELS 3 Xrotation Yrotation Zrotation
				JOINT LeftToeBase
				{
					OFFSET 1.551100 -14.988700 20.535801
					CHANNELS 3 Xrotation Yrotation Zrotation
					JOINT LeftToe_End
					{
						OFFSET 0.221200 0.570800 13.248301
						CHANNELS 3 Xrotation Yrotation Zrotation
						End Site
						{
							OFFSET 0.000000 13.262435 0.000000
						}
					}
				}
			}
		}
	}
	JOINT RightUpLeg
	{
		OFFSET -13.839300 -7.904099 -1.463000
		CHANNELS 3 Xrotation Yrotation Zrotation
		JOINT RightLeg
		{
			OFFSET 0.109694 -34.073219 4.093300
			CHANNELS 3 Xrotation Yrotation Zrotation
			JOINT RightFoot
			{
				OFFSET -0.109694 -29.899384 -6.319200
				CHANNELS 3 Xrotation Yrotation Zrotation
				JOINT RightToeBase
				{
					OFFSET -1.551100 -14.988700 20.535801
					CHANNELS 3 Xrotation Yrotation Zrotation
					JOINT RightToe_End
					{
						OFFSET -0.221200 0.570900 13.248299
						CHANNELS 3 Xrotation Yrotation Zrotation
						End Site
						{
							OFFSET 0.000000 13.262440 0.000000
						}
					}
				}
			}
		}
	}
}
MOTION
Frames: 4
Frame Time: 0.033333
-0.170662 83.981369 1.462186 -3.410885 -1.575395 -0.696921 2.090403 0.462104 0.192078 3.957414 0.929320 0.812613 3.958061 0.933306 0.803693 4.036711 -1.588074 0.403150 -6.228111 -8.208380 1.126115 -0.000001 0.000001 0.000000 0.523803 -1.959698 -5.569844 55.814035 -29.385260 -21.808756 -0.000168 -83.343307 -0.000188 34.053240 -20.905749 13.909065 0.398466 2.312537 -19.550033 0.141212 1.390112 -11.600302 0.105896 1.205376 -10.041000 -0.000000 0.000002 -0.000003 -20.572492 20.563183 0.805602 5.191509 15.540306 5.725716 2.014987 8.897276 4.239822 -0.000000 0.000001 -0.000004 1.671634 9.502106 12.144750 -3.016101 2.651032 60.564449 -0.000007 21.522915 0.000009 -12.853251 4.376318 7.103179 22.052193 -19.630923 -4.065988 6.961026 -14.323177 -1.339959 -1.273758 0.137309 -2.094871 -0.000000 -0.000000 0.000002 0.454797 -2.477814 20.798481 0.028236 -0.627303 5.154588 0.026757 -0.610638 5.017278 0.000000 -0.000000 -0.000001 -8.413489 12.091598 14.929754 26.476516 7.929409 0.577964 -9.662552 13.561167 -14.470910 -0.000039 0.000002 0.000003 -0.000000 0.000002 0.000000 -11.443211 -12.158665 -12.395266 26.970122 -2.543846 -0.000246 -11.414972 -1.571304 10.013009 -0.002759 -0.000000 -0.000001 -0.000000 -0.000002 -0.000000 
0.172809 83.966187 1.996820 -2.839675 -1.531580 -0.575185 1.891455 0.321600 0.058140 3.566148 0.647630 0.692854 3.566458 0.650870 0.684000 3.214200 -1.300436 0.581536 -6.024136 -6.394317 0.744547 0.000000 -0.000001 -0.000000 0.601366 -2.843267 -6.404868 45.735370 -29.224351 -29.927123 -0.000026 -73.555093 -0.000016 29.894379 -22.616331 5.104060 0.269495 1.911145 -16.051416 0.205899 1.674523 -14.019137 0.124342 1.305318 -10.883490 -0.000001 0.000001 -0.000000 -15.585867 21.181894 -0.713284 5.095063 17.274214 5.396472 2.066514 10.013775 4.108115 0.000001 0.000000 0.000002 1.632859 9.428087 12.142820 -3.378063 2.248757 60.883596 -0.000008 21.073739 0.000016 -12.708854 4.277300 7.238327 22.052196 -19.630911 -4.065956 6.960649 -14.322271 -1.339815 -1.273757 0.137315 -2.094863 0.000003 -0.000000 0.000000 0.454261 -2.476400 20.786045 0.028100 -0.625790 5.142180 0.026627 -0.609143 5.004828 -0.000000 0.000001 0.000002 -8.421582 11.915518 14.374381 26.479513 7.925621 0.600970 -10.192544 13.933501 -14.315956 -0.000039 0.000002 0.000003 -0.000000 0.000002 0.000000 -11.810962 -11.967999 -12.650058 26.899332 -2.315995 0.002445 -11.566559 -1.601353 10.215355 -0.002758 0.000002 0.000001 -0.000000 -0.000002 -0.000000 
0.553722 83.951790 2.528428 -2.253685 -1.434817 -0.376168 1.688671 0.166994 -0.071970 3.166756 0.339519 0.537772 3.166622 0.342195 0.529032 2.399174 -0.997936 0.753862 -5.908420 -4.486762 0.369294 -0.000000 -0.000000 -0.000000 0.654691 -3.766498 -7.272029 35.131116 -27.801752 -38.193998 -0.000007 -62.774247 -0.000017 26.198954 -23.397402 -3.347446 0.123595 1.301360 -10.850073 0.395886 2.305272 -19.486132 0.169544 1.521573 -12.715404 0.000001 -0.000000 0.000002 -10.029858 21.575505 -2.620543 4.978756 19.166785 5.059691 2.267244 11.674387 4.059166 -0.000000 -0.000001 0.000002 1.593137 9.347513 12.140698 -3.763624 1.819513 61.233452 -0.000004 20.565227 -0.000004 -12.530455 4.192264 7.377481 22.052208 -19.630910 -4.065957 6.959556 -14.319560 -1.339337 -1.273753 0.137319 -2.094856 0.000003 0.000001 -0.000001 0.452691 -2.472261 20.749710 0.027712 -0.621384 5.105860 0.026232 -0.604732 4.968554 -0.000000 -0.000001 -0.000002 -8.368040 11.568466 13.638658 26.406522 7.981132 0.629951 -10.685903 14.401720 -14.122676 -0.000039 0.000000 0.000003 -0.000000 0.000000 -0.000000 -12.256418 -11.848531 -13.030222 26.877370 -2.003091 0.005091 -11.740263 -1.627803 10.412810 -0.002758 0.000003 -0.000003 0.000000 0.000000 0.000000 
0.958161 83.938522 3.052773 -1.658583 -1.298800 -0.125986 1.482837 0.000553 -0.197813 2.760606 0.009515 0.351069 2.759927 0.011796 0.342498 1.521496 -0.692572 0.941085 -5.793754 -2.532262 -0.018266 -0.000000 0.000000 0.000000 0.679957 -4.709859 -8.157707 24.595286 -25.085176 -45.822913 0.000004 -51.317916 0.000015 23.204823 -23.229492 -10.854478 0.030225 0.645980 -5.360851 0.829549 3.281527 -28.366348 0.268416 1.907451 -16.019536 -0.000000 -0.000000 0.000001 -4.125485 21.622400 -4.861849 4.834708 21.205615 4.727902 2.597659 13.816318 4.073597 0.000001 0.000002 0.000000 1.553285 9.259881 12.138367 -4.142470 1.363709 61.601278 -0.000005 20.061679 0.000019 -12.345797 4.107368 7.509174 22.052201 -19.630913 -4.065950 6.957757 -14.315071 -1.338533 -1.273760 0.137314 -2.094867 0.000000 -0.000000 0.000002 0.450166 -2.465582 20.690950 0.027072 -0.614271 5.047227 0.025626 -0.597607 4.909912 0.000000 0.000001 0.000003 -8.281229 11.159184 12.793790 26.266406 8.047880 0.661749 -11.158292 14.903094 -13.884911 -0.000039 0.000002 0.000003 -0.000000 0.000002 -0.000000 -12.742486 -11.748403 -13.493626 26.878405 -1.673559 0.007820 -11.920662 -1.654924 10.622540 -0.002758 0.000005 -0.000000 0.000000 -0.000000 0.000000 
